%TF.GenerationSoftware,KiCad,Pcbnew,7.0.2*%
%TF.CreationDate,2023-05-06T19:40:55+10:00*%
%TF.ProjectId,Regulator,52656775-6c61-4746-9f72-2e6b69636164,rev?*%
%TF.SameCoordinates,Original*%
%TF.FileFunction,Legend,Bot*%
%TF.FilePolarity,Positive*%
%FSLAX46Y46*%
G04 Gerber Fmt 4.6, Leading zero omitted, Abs format (unit mm)*
G04 Created by KiCad (PCBNEW 7.0.2) date 2023-05-06 19:40:55*
%MOMM*%
%LPD*%
G01*
G04 APERTURE LIST*
%ADD10C,0.200000*%
G04 APERTURE END LIST*
D10*
X123871428Y-91877619D02*
X123776190Y-91877619D01*
X123776190Y-91877619D02*
X123680952Y-91925238D01*
X123680952Y-91925238D02*
X123633333Y-91972857D01*
X123633333Y-91972857D02*
X123585714Y-92068095D01*
X123585714Y-92068095D02*
X123538095Y-92258571D01*
X123538095Y-92258571D02*
X123538095Y-92496666D01*
X123538095Y-92496666D02*
X123585714Y-92687142D01*
X123585714Y-92687142D02*
X123633333Y-92782380D01*
X123633333Y-92782380D02*
X123680952Y-92830000D01*
X123680952Y-92830000D02*
X123776190Y-92877619D01*
X123776190Y-92877619D02*
X123871428Y-92877619D01*
X123871428Y-92877619D02*
X123966666Y-92830000D01*
X123966666Y-92830000D02*
X124014285Y-92782380D01*
X124014285Y-92782380D02*
X124061904Y-92687142D01*
X124061904Y-92687142D02*
X124109523Y-92496666D01*
X124109523Y-92496666D02*
X124109523Y-92258571D01*
X124109523Y-92258571D02*
X124061904Y-92068095D01*
X124061904Y-92068095D02*
X124014285Y-91972857D01*
X124014285Y-91972857D02*
X123966666Y-91925238D01*
X123966666Y-91925238D02*
X123871428Y-91877619D01*
X122633333Y-91877619D02*
X123109523Y-91877619D01*
X123109523Y-91877619D02*
X123157142Y-92353809D01*
X123157142Y-92353809D02*
X123109523Y-92306190D01*
X123109523Y-92306190D02*
X123014285Y-92258571D01*
X123014285Y-92258571D02*
X122776190Y-92258571D01*
X122776190Y-92258571D02*
X122680952Y-92306190D01*
X122680952Y-92306190D02*
X122633333Y-92353809D01*
X122633333Y-92353809D02*
X122585714Y-92449047D01*
X122585714Y-92449047D02*
X122585714Y-92687142D01*
X122585714Y-92687142D02*
X122633333Y-92782380D01*
X122633333Y-92782380D02*
X122680952Y-92830000D01*
X122680952Y-92830000D02*
X122776190Y-92877619D01*
X122776190Y-92877619D02*
X123014285Y-92877619D01*
X123014285Y-92877619D02*
X123109523Y-92830000D01*
X123109523Y-92830000D02*
X123157142Y-92782380D01*
X121442857Y-91830000D02*
X122299999Y-93115714D01*
X121157142Y-91972857D02*
X121109523Y-91925238D01*
X121109523Y-91925238D02*
X121014285Y-91877619D01*
X121014285Y-91877619D02*
X120776190Y-91877619D01*
X120776190Y-91877619D02*
X120680952Y-91925238D01*
X120680952Y-91925238D02*
X120633333Y-91972857D01*
X120633333Y-91972857D02*
X120585714Y-92068095D01*
X120585714Y-92068095D02*
X120585714Y-92163333D01*
X120585714Y-92163333D02*
X120633333Y-92306190D01*
X120633333Y-92306190D02*
X121204761Y-92877619D01*
X121204761Y-92877619D02*
X120585714Y-92877619D01*
X120252380Y-91877619D02*
X119633333Y-91877619D01*
X119633333Y-91877619D02*
X119966666Y-92258571D01*
X119966666Y-92258571D02*
X119823809Y-92258571D01*
X119823809Y-92258571D02*
X119728571Y-92306190D01*
X119728571Y-92306190D02*
X119680952Y-92353809D01*
X119680952Y-92353809D02*
X119633333Y-92449047D01*
X119633333Y-92449047D02*
X119633333Y-92687142D01*
X119633333Y-92687142D02*
X119680952Y-92782380D01*
X119680952Y-92782380D02*
X119728571Y-92830000D01*
X119728571Y-92830000D02*
X119823809Y-92877619D01*
X119823809Y-92877619D02*
X120109523Y-92877619D01*
X120109523Y-92877619D02*
X120204761Y-92830000D01*
X120204761Y-92830000D02*
X120252380Y-92782380D01*
X119674761Y-77385714D02*
X119722380Y-77480952D01*
X119722380Y-77480952D02*
X119722380Y-77623809D01*
X119722380Y-77623809D02*
X119674761Y-77766666D01*
X119674761Y-77766666D02*
X119579523Y-77861904D01*
X119579523Y-77861904D02*
X119484285Y-77909523D01*
X119484285Y-77909523D02*
X119293809Y-77957142D01*
X119293809Y-77957142D02*
X119150952Y-77957142D01*
X119150952Y-77957142D02*
X118960476Y-77909523D01*
X118960476Y-77909523D02*
X118865238Y-77861904D01*
X118865238Y-77861904D02*
X118770000Y-77766666D01*
X118770000Y-77766666D02*
X118722380Y-77623809D01*
X118722380Y-77623809D02*
X118722380Y-77528571D01*
X118722380Y-77528571D02*
X118770000Y-77385714D01*
X118770000Y-77385714D02*
X118817619Y-77338095D01*
X118817619Y-77338095D02*
X119150952Y-77338095D01*
X119150952Y-77338095D02*
X119150952Y-77528571D01*
X118722380Y-76909523D02*
X119722380Y-76909523D01*
X119722380Y-76909523D02*
X118722380Y-76338095D01*
X118722380Y-76338095D02*
X119722380Y-76338095D01*
X118722380Y-75861904D02*
X119722380Y-75861904D01*
X119722380Y-75861904D02*
X119722380Y-75623809D01*
X119722380Y-75623809D02*
X119674761Y-75480952D01*
X119674761Y-75480952D02*
X119579523Y-75385714D01*
X119579523Y-75385714D02*
X119484285Y-75338095D01*
X119484285Y-75338095D02*
X119293809Y-75290476D01*
X119293809Y-75290476D02*
X119150952Y-75290476D01*
X119150952Y-75290476D02*
X118960476Y-75338095D01*
X118960476Y-75338095D02*
X118865238Y-75385714D01*
X118865238Y-75385714D02*
X118770000Y-75480952D01*
X118770000Y-75480952D02*
X118722380Y-75623809D01*
X118722380Y-75623809D02*
X118722380Y-75861904D01*
X122174761Y-77385714D02*
X122222380Y-77480952D01*
X122222380Y-77480952D02*
X122222380Y-77623809D01*
X122222380Y-77623809D02*
X122174761Y-77766666D01*
X122174761Y-77766666D02*
X122079523Y-77861904D01*
X122079523Y-77861904D02*
X121984285Y-77909523D01*
X121984285Y-77909523D02*
X121793809Y-77957142D01*
X121793809Y-77957142D02*
X121650952Y-77957142D01*
X121650952Y-77957142D02*
X121460476Y-77909523D01*
X121460476Y-77909523D02*
X121365238Y-77861904D01*
X121365238Y-77861904D02*
X121270000Y-77766666D01*
X121270000Y-77766666D02*
X121222380Y-77623809D01*
X121222380Y-77623809D02*
X121222380Y-77528571D01*
X121222380Y-77528571D02*
X121270000Y-77385714D01*
X121270000Y-77385714D02*
X121317619Y-77338095D01*
X121317619Y-77338095D02*
X121650952Y-77338095D01*
X121650952Y-77338095D02*
X121650952Y-77528571D01*
X121222380Y-76909523D02*
X122222380Y-76909523D01*
X122222380Y-76909523D02*
X121222380Y-76338095D01*
X121222380Y-76338095D02*
X122222380Y-76338095D01*
X121222380Y-75861904D02*
X122222380Y-75861904D01*
X122222380Y-75861904D02*
X122222380Y-75623809D01*
X122222380Y-75623809D02*
X122174761Y-75480952D01*
X122174761Y-75480952D02*
X122079523Y-75385714D01*
X122079523Y-75385714D02*
X121984285Y-75338095D01*
X121984285Y-75338095D02*
X121793809Y-75290476D01*
X121793809Y-75290476D02*
X121650952Y-75290476D01*
X121650952Y-75290476D02*
X121460476Y-75338095D01*
X121460476Y-75338095D02*
X121365238Y-75385714D01*
X121365238Y-75385714D02*
X121270000Y-75480952D01*
X121270000Y-75480952D02*
X121222380Y-75623809D01*
X121222380Y-75623809D02*
X121222380Y-75861904D01*
X125842380Y-80195238D02*
X125842380Y-80671428D01*
X125842380Y-80671428D02*
X125366190Y-80719047D01*
X125366190Y-80719047D02*
X125413809Y-80671428D01*
X125413809Y-80671428D02*
X125461428Y-80576190D01*
X125461428Y-80576190D02*
X125461428Y-80338095D01*
X125461428Y-80338095D02*
X125413809Y-80242857D01*
X125413809Y-80242857D02*
X125366190Y-80195238D01*
X125366190Y-80195238D02*
X125270952Y-80147619D01*
X125270952Y-80147619D02*
X125032857Y-80147619D01*
X125032857Y-80147619D02*
X124937619Y-80195238D01*
X124937619Y-80195238D02*
X124890000Y-80242857D01*
X124890000Y-80242857D02*
X124842380Y-80338095D01*
X124842380Y-80338095D02*
X124842380Y-80576190D01*
X124842380Y-80576190D02*
X124890000Y-80671428D01*
X124890000Y-80671428D02*
X124937619Y-80719047D01*
X125842380Y-79861904D02*
X124842380Y-79528571D01*
X124842380Y-79528571D02*
X125842380Y-79195238D01*
X125223333Y-78861904D02*
X125223333Y-78100000D01*
X125842380Y-77719047D02*
X125842380Y-77100000D01*
X125842380Y-77100000D02*
X125461428Y-77433333D01*
X125461428Y-77433333D02*
X125461428Y-77290476D01*
X125461428Y-77290476D02*
X125413809Y-77195238D01*
X125413809Y-77195238D02*
X125366190Y-77147619D01*
X125366190Y-77147619D02*
X125270952Y-77100000D01*
X125270952Y-77100000D02*
X125032857Y-77100000D01*
X125032857Y-77100000D02*
X124937619Y-77147619D01*
X124937619Y-77147619D02*
X124890000Y-77195238D01*
X124890000Y-77195238D02*
X124842380Y-77290476D01*
X124842380Y-77290476D02*
X124842380Y-77576190D01*
X124842380Y-77576190D02*
X124890000Y-77671428D01*
X124890000Y-77671428D02*
X124937619Y-77719047D01*
X125842380Y-76480952D02*
X125842380Y-76385714D01*
X125842380Y-76385714D02*
X125794761Y-76290476D01*
X125794761Y-76290476D02*
X125747142Y-76242857D01*
X125747142Y-76242857D02*
X125651904Y-76195238D01*
X125651904Y-76195238D02*
X125461428Y-76147619D01*
X125461428Y-76147619D02*
X125223333Y-76147619D01*
X125223333Y-76147619D02*
X125032857Y-76195238D01*
X125032857Y-76195238D02*
X124937619Y-76242857D01*
X124937619Y-76242857D02*
X124890000Y-76290476D01*
X124890000Y-76290476D02*
X124842380Y-76385714D01*
X124842380Y-76385714D02*
X124842380Y-76480952D01*
X124842380Y-76480952D02*
X124890000Y-76576190D01*
X124890000Y-76576190D02*
X124937619Y-76623809D01*
X124937619Y-76623809D02*
X125032857Y-76671428D01*
X125032857Y-76671428D02*
X125223333Y-76719047D01*
X125223333Y-76719047D02*
X125461428Y-76719047D01*
X125461428Y-76719047D02*
X125651904Y-76671428D01*
X125651904Y-76671428D02*
X125747142Y-76623809D01*
X125747142Y-76623809D02*
X125794761Y-76576190D01*
X125794761Y-76576190D02*
X125842380Y-76480952D01*
X125842380Y-75861904D02*
X124842380Y-75528571D01*
X124842380Y-75528571D02*
X125842380Y-75195238D01*
X123222380Y-76385713D02*
X124222380Y-76385713D01*
X123222380Y-75909523D02*
X124222380Y-75909523D01*
X124222380Y-75909523D02*
X123222380Y-75338095D01*
X123222380Y-75338095D02*
X124222380Y-75338095D01*
X151285714Y-91877619D02*
X151761904Y-91877619D01*
X151761904Y-91877619D02*
X151809523Y-92353809D01*
X151809523Y-92353809D02*
X151761904Y-92306190D01*
X151761904Y-92306190D02*
X151666666Y-92258571D01*
X151666666Y-92258571D02*
X151428571Y-92258571D01*
X151428571Y-92258571D02*
X151333333Y-92306190D01*
X151333333Y-92306190D02*
X151285714Y-92353809D01*
X151285714Y-92353809D02*
X151238095Y-92449047D01*
X151238095Y-92449047D02*
X151238095Y-92687142D01*
X151238095Y-92687142D02*
X151285714Y-92782380D01*
X151285714Y-92782380D02*
X151333333Y-92830000D01*
X151333333Y-92830000D02*
X151428571Y-92877619D01*
X151428571Y-92877619D02*
X151666666Y-92877619D01*
X151666666Y-92877619D02*
X151761904Y-92830000D01*
X151761904Y-92830000D02*
X151809523Y-92782380D01*
X150952380Y-91877619D02*
X150619047Y-92877619D01*
X150619047Y-92877619D02*
X150285714Y-91877619D01*
X149952380Y-92496666D02*
X149190476Y-92496666D01*
X148809523Y-91877619D02*
X148190476Y-91877619D01*
X148190476Y-91877619D02*
X148523809Y-92258571D01*
X148523809Y-92258571D02*
X148380952Y-92258571D01*
X148380952Y-92258571D02*
X148285714Y-92306190D01*
X148285714Y-92306190D02*
X148238095Y-92353809D01*
X148238095Y-92353809D02*
X148190476Y-92449047D01*
X148190476Y-92449047D02*
X148190476Y-92687142D01*
X148190476Y-92687142D02*
X148238095Y-92782380D01*
X148238095Y-92782380D02*
X148285714Y-92830000D01*
X148285714Y-92830000D02*
X148380952Y-92877619D01*
X148380952Y-92877619D02*
X148666666Y-92877619D01*
X148666666Y-92877619D02*
X148761904Y-92830000D01*
X148761904Y-92830000D02*
X148809523Y-92782380D01*
X147571428Y-91877619D02*
X147476190Y-91877619D01*
X147476190Y-91877619D02*
X147380952Y-91925238D01*
X147380952Y-91925238D02*
X147333333Y-91972857D01*
X147333333Y-91972857D02*
X147285714Y-92068095D01*
X147285714Y-92068095D02*
X147238095Y-92258571D01*
X147238095Y-92258571D02*
X147238095Y-92496666D01*
X147238095Y-92496666D02*
X147285714Y-92687142D01*
X147285714Y-92687142D02*
X147333333Y-92782380D01*
X147333333Y-92782380D02*
X147380952Y-92830000D01*
X147380952Y-92830000D02*
X147476190Y-92877619D01*
X147476190Y-92877619D02*
X147571428Y-92877619D01*
X147571428Y-92877619D02*
X147666666Y-92830000D01*
X147666666Y-92830000D02*
X147714285Y-92782380D01*
X147714285Y-92782380D02*
X147761904Y-92687142D01*
X147761904Y-92687142D02*
X147809523Y-92496666D01*
X147809523Y-92496666D02*
X147809523Y-92258571D01*
X147809523Y-92258571D02*
X147761904Y-92068095D01*
X147761904Y-92068095D02*
X147714285Y-91972857D01*
X147714285Y-91972857D02*
X147666666Y-91925238D01*
X147666666Y-91925238D02*
X147571428Y-91877619D01*
X146952380Y-91877619D02*
X146619047Y-92877619D01*
X146619047Y-92877619D02*
X146285714Y-91877619D01*
X145190475Y-92877619D02*
X145190475Y-91877619D01*
X144714285Y-92877619D02*
X144714285Y-91877619D01*
X144714285Y-91877619D02*
X144142857Y-92877619D01*
X144142857Y-92877619D02*
X144142857Y-91877619D01*
X142428571Y-91877619D02*
X142904761Y-91877619D01*
X142904761Y-91877619D02*
X142952380Y-92353809D01*
X142952380Y-92353809D02*
X142904761Y-92306190D01*
X142904761Y-92306190D02*
X142809523Y-92258571D01*
X142809523Y-92258571D02*
X142571428Y-92258571D01*
X142571428Y-92258571D02*
X142476190Y-92306190D01*
X142476190Y-92306190D02*
X142428571Y-92353809D01*
X142428571Y-92353809D02*
X142380952Y-92449047D01*
X142380952Y-92449047D02*
X142380952Y-92687142D01*
X142380952Y-92687142D02*
X142428571Y-92782380D01*
X142428571Y-92782380D02*
X142476190Y-92830000D01*
X142476190Y-92830000D02*
X142571428Y-92877619D01*
X142571428Y-92877619D02*
X142809523Y-92877619D01*
X142809523Y-92877619D02*
X142904761Y-92830000D01*
X142904761Y-92830000D02*
X142952380Y-92782380D01*
X142095237Y-91877619D02*
X141761904Y-92877619D01*
X141761904Y-92877619D02*
X141428571Y-91877619D01*
X140142856Y-91877619D02*
X139952380Y-91877619D01*
X139952380Y-91877619D02*
X139857142Y-91925238D01*
X139857142Y-91925238D02*
X139761904Y-92020476D01*
X139761904Y-92020476D02*
X139714285Y-92210952D01*
X139714285Y-92210952D02*
X139714285Y-92544285D01*
X139714285Y-92544285D02*
X139761904Y-92734761D01*
X139761904Y-92734761D02*
X139857142Y-92830000D01*
X139857142Y-92830000D02*
X139952380Y-92877619D01*
X139952380Y-92877619D02*
X140142856Y-92877619D01*
X140142856Y-92877619D02*
X140238094Y-92830000D01*
X140238094Y-92830000D02*
X140333332Y-92734761D01*
X140333332Y-92734761D02*
X140380951Y-92544285D01*
X140380951Y-92544285D02*
X140380951Y-92210952D01*
X140380951Y-92210952D02*
X140333332Y-92020476D01*
X140333332Y-92020476D02*
X140238094Y-91925238D01*
X140238094Y-91925238D02*
X140142856Y-91877619D01*
X139285713Y-91877619D02*
X139285713Y-92687142D01*
X139285713Y-92687142D02*
X139238094Y-92782380D01*
X139238094Y-92782380D02*
X139190475Y-92830000D01*
X139190475Y-92830000D02*
X139095237Y-92877619D01*
X139095237Y-92877619D02*
X138904761Y-92877619D01*
X138904761Y-92877619D02*
X138809523Y-92830000D01*
X138809523Y-92830000D02*
X138761904Y-92782380D01*
X138761904Y-92782380D02*
X138714285Y-92687142D01*
X138714285Y-92687142D02*
X138714285Y-91877619D01*
X138380951Y-91877619D02*
X137809523Y-91877619D01*
X138095237Y-92877619D02*
X138095237Y-91877619D01*
X117592380Y-76195238D02*
X117592380Y-76671428D01*
X117592380Y-76671428D02*
X117116190Y-76719047D01*
X117116190Y-76719047D02*
X117163809Y-76671428D01*
X117163809Y-76671428D02*
X117211428Y-76576190D01*
X117211428Y-76576190D02*
X117211428Y-76338095D01*
X117211428Y-76338095D02*
X117163809Y-76242857D01*
X117163809Y-76242857D02*
X117116190Y-76195238D01*
X117116190Y-76195238D02*
X117020952Y-76147619D01*
X117020952Y-76147619D02*
X116782857Y-76147619D01*
X116782857Y-76147619D02*
X116687619Y-76195238D01*
X116687619Y-76195238D02*
X116640000Y-76242857D01*
X116640000Y-76242857D02*
X116592380Y-76338095D01*
X116592380Y-76338095D02*
X116592380Y-76576190D01*
X116592380Y-76576190D02*
X116640000Y-76671428D01*
X116640000Y-76671428D02*
X116687619Y-76719047D01*
X117592380Y-75861904D02*
X116592380Y-75528571D01*
X116592380Y-75528571D02*
X117592380Y-75195238D01*
X115972380Y-77528571D02*
X115972380Y-77338095D01*
X115972380Y-77338095D02*
X115924761Y-77242857D01*
X115924761Y-77242857D02*
X115829523Y-77147619D01*
X115829523Y-77147619D02*
X115639047Y-77100000D01*
X115639047Y-77100000D02*
X115305714Y-77100000D01*
X115305714Y-77100000D02*
X115115238Y-77147619D01*
X115115238Y-77147619D02*
X115020000Y-77242857D01*
X115020000Y-77242857D02*
X114972380Y-77338095D01*
X114972380Y-77338095D02*
X114972380Y-77528571D01*
X114972380Y-77528571D02*
X115020000Y-77623809D01*
X115020000Y-77623809D02*
X115115238Y-77719047D01*
X115115238Y-77719047D02*
X115305714Y-77766666D01*
X115305714Y-77766666D02*
X115639047Y-77766666D01*
X115639047Y-77766666D02*
X115829523Y-77719047D01*
X115829523Y-77719047D02*
X115924761Y-77623809D01*
X115924761Y-77623809D02*
X115972380Y-77528571D01*
X115972380Y-76671428D02*
X115162857Y-76671428D01*
X115162857Y-76671428D02*
X115067619Y-76623809D01*
X115067619Y-76623809D02*
X115020000Y-76576190D01*
X115020000Y-76576190D02*
X114972380Y-76480952D01*
X114972380Y-76480952D02*
X114972380Y-76290476D01*
X114972380Y-76290476D02*
X115020000Y-76195238D01*
X115020000Y-76195238D02*
X115067619Y-76147619D01*
X115067619Y-76147619D02*
X115162857Y-76100000D01*
X115162857Y-76100000D02*
X115972380Y-76100000D01*
X115972380Y-75766666D02*
X115972380Y-75195238D01*
X114972380Y-75480952D02*
X115972380Y-75480952D01*
M02*
